<?xml version="1.0" encoding="utf-8"?>
<!-- Generator: Adobe Illustrator 22.0.1, SVG Export Plug-In . SVG Version: 6.00 Build 0)  -->
<svg version="1.1" id="Layer_1" xmlns="http://www.w3.org/2000/svg" xmlns:xlink="http://www.w3.org/1999/xlink" x="0px" y="0px"
	 viewBox="0 0 432.2 168.7" style="enable-background:new 0 0 432.2 168.7;" xml:space="preserve">
<style type="text/css">
	.st0{fill:url(#SVGID_1_);}
	.st1{fill:#F4D38F;}
</style>
<linearGradient id="SVGID_1_" gradientUnits="userSpaceOnUse" x1="0" y1="84.3289" x2="432.1738" y2="84.3289">
	<stop  offset="0" style="stop-color:#9D7845"/>
	<stop  offset="0.5155" style="stop-color:#FFDF9A"/>
	<stop  offset="0.5973" style="stop-color:#F6D694"/>
	<stop  offset="0.6816" style="stop-color:#E4C384"/>
	<stop  offset="0.7671" style="stop-color:#CAA86E"/>
	<stop  offset="0.8534" style="stop-color:#AA8751"/>
	<stop  offset="0.9395" style="stop-color:#866332"/>
	<stop  offset="1" style="stop-color:#6B4A1E"/>
</linearGradient>
<path class="st0" d="M165.1,37.8c0,7.5-3.7,19.2-11,35.3c-7.3,16.1-11,26.4-11,31.1c0,3.8,1.8,5.7,5.3,5.7c2,0,4.5-1.1,7.5-3.2
	c3-2.2,4.7-3.2,5.2-3.2c0.5,0,0.8,0.3,0.8,0.9c0,2.5-1.7,4.7-5.2,6.6c-3.5,1.9-6.6,2.8-9.4,2.8c-6.7,0-10.1-3.5-10.1-10.6
	c0-5.2,1.9-12.1,5.7-20.9c4.6-10.2,7-15.7,7.2-16.5c2.7-6.3,4.7-12,6.2-17.2c1.5-5.1,2.2-9.1,2.2-12c0-4.4-1.6-6.6-4.7-6.6
	c-1.5,0-3.5,0.5-5.9,1.5c-9.1,4.2-20.6,14.9-34.3,32.3c-10.1,12.8-19.4,26.1-27.7,40c-2,3.7-5.1,8.1-9.3,13.3
	c-2.8,0-4.2-1.4-4.2-4.2c0-0.9,0.2-1.6,0.6-2.3c7-8.5,14.7-22.2,23.1-41.2c9.1-20.4,13.7-35.2,13.7-44.4c0-13.7-8.1-20.5-24.3-20.5
	c-7.7,0-16.5,1.7-26.4,5.1C47.6,13.5,36.6,19,26,26.4C12,36,4.9,45.2,4.9,54.1c0,7.2,4.9,10.8,14.6,10.8c5.2,0,12.2-1.3,21.1-3.8
	c0.9-0.3,1.5-0.4,1.9-0.4c1,0,1.5,0.4,1.5,1.1c0,2.2-3.3,4-9.9,5.5c-5.2,1.3-9.5,1.9-12.9,1.9C7.1,69.2,0,63.7,0,52.6
	C0,42.2,7.2,32,21.6,22C32.5,14.5,44.4,8.8,57.3,4.7C67.9,1.6,77.7,0,86.5,0c20.9,0,31.3,8.2,31.3,24.7c0,11.5-4.6,26-13.8,43.4
	c7.2-8.6,14.4-17.3,21.6-26c10.9-11.8,19.4-17.6,25.6-17.6C160.4,24.5,165.1,28.9,165.1,37.8L165.1,37.8z M234.5,86.5
	c0,0.9-0.4,2-1.1,3.2c-3.5,5.8-7.7,10.9-12.3,15.2c-6.1,5.6-11.8,8.3-17.1,8.3c-7.1,0-10.6-4.4-10.6-13.3c0-2,0.9-6,2.8-12
	c-4.4,6.5-7.3,10.4-8.5,12c-4.2,4.9-7.9,7.4-11.2,7.4c-4.2,0-6.3-3.5-6.3-10.6c0-4,1.3-8.9,4-14.6c2.9-6.6,6.1-9.9,9.5-9.9
	c1.9,0,2.8,0.5,2.8,1.5c0,0.1-1.6,3-4.8,8.6c-3.2,5.6-4.8,10-4.8,13c0,4,1.2,6.1,3.6,6.1c4,0,11.3-9.2,21.8-27.7
	c0.9-1.8,2.2-4.2,4-7.4c0.9-1,1.8-1.5,2.8-1.5c1.1,0,2.2,0.5,3.1,1.4c0.9,0.9,1.4,2.1,1.4,3.3c0-0.1-2.2,4.1-6.7,12.7
	c-4.5,8.6-6.7,15.2-6.7,19.9c0,4.4,2.1,6.6,6.3,6.6c3.5,0,7.6-2,12.1-6.1c3-2.7,6.5-6.5,10.2-11.4c3.2-4,4.9-6.1,5.1-6.1
	C234.3,85.4,234.5,85.8,234.5,86.5L234.5,86.5z M276.8,88.6c0,0.3-0.1,0.5-0.4,0.8c-1.8,3-4.5,5.6-8.1,7.8
	c-3.6,2.2-7.1,3.2-10.5,3.2c-2.5,0-4.9-0.6-7-1.9c-5.8,9.2-11.8,13.8-18,13.8c-4.4,0-6.6-2.6-6.6-7.8c0-7.2,3.2-15.7,9.5-25.4
	c-0.3-1.4-0.4-2.8-0.4-4.2c0-4.6,1.5-9,4.6-13.3c3-4.3,6.8-6.5,11.2-6.5c2.9,0,5.2,1.7,7,5.1c1.4,2.9,2.1,5.9,2.1,9.1
	c0,6.8-2.7,15.5-8,26c1.9,1.1,4,1.7,6.5,1.7c4.2,0,8.1-1.6,11.8-4.9c3.7-3.3,5.4-4.9,5.1-4.9C276.4,87.3,276.8,87.7,276.8,88.6
	L276.8,88.6z M254.4,74.2c0-2.8-0.4-5.6-1.3-8.5c-1.3-4-2.9-6.1-4.9-6.1c-2.9,0-5.2,1.8-6.8,5.3c-1.3,2.8-1.8,5.8-1.7,9.1
	c2-2.4,4-3.6,6.1-3.6c1.9,0,3.3,0.6,4.2,1.9c0,0.1,0,0.4,0,0.9c0.1,0.4,0.2,0.7,0.2,0.9c0,0.4-0.6,0.6-1.9,0.6
	c-2.3,0-4.7,2.4-7.2,7.2c1.6,4.8,4.6,8.7,8.7,11.8C252.8,85.8,254.4,79.2,254.4,74.2L254.4,74.2z M248.1,96.4
	c-4.2-2.8-7.3-6-9.5-9.7c-3.8,8-5.7,13.7-5.7,17.3c0,2.5,0.9,3.8,2.8,3.8c1.8,0,4.1-1.5,7-4.6C245.4,100.8,247.1,98.5,248.1,96.4
	L248.1,96.4z M300.1,76.1c0.4-0.4,0.8-1,1.1-1.9c0.4-0.9,0.8-1.8,1.2-2.8c0.4-1,0.9-2,1.3-2.9c0.4-0.9,0.9-1.6,1.2-2
	c0.9-0.9,1.9-1.3,3-1.3c2.9,0,4.4,1.5,4.4,4.4c0,0.6-0.3,1.4-0.8,2.3c-7.1,11.6-10.6,20.9-10.6,27.7c0,4.8,2.3,7.2,6.8,7.2
	c3.5,0,7.3-1.8,11.4-5.5c2.8-2.4,5.8-5.8,8.9-10.2c2.7-3.7,4.2-5.5,4.6-5.5c0.4,0,0.6,0.4,0.6,1.1c0,0.9-0.4,2-1.1,3.2
	c-8.6,14.3-17.5,21.4-26.7,21.4c-7.2,0-10.8-4.6-10.8-13.7c0-5.1,0.8-9.8,2.3-14.2c-3,0.8-6.1,1.6-9.3,2.7c-3.2,1-6.5,2.2-9.9,3.6
	c-0.3,1-0.6,2-0.9,2.9c-0.4,0.9-0.7,1.9-0.9,2.9c-1,5.9-2.2,10-3.4,12.1s-2.7,3.2-4.4,3.2c-1.1,0-1.7-1.1-1.7-3.4
	c0-0.5,0.1-1,0.4-1.5c1.4-3.3,2.8-7.2,4.2-11.7c1.4-4.5,2.8-9.8,4.2-15.8c0.3-1,0.5-2.2,0.8-3.7c0.3-1.5,0.6-3.2,1.1-5.2
	c0.4-0.9,1.3-1.8,2.7-2.7c1.4-0.9,2.7-1.3,3.8-1.3c0.9,0,1.3,0.4,1.3,1.1c0,0.6-0.5,2.6-1.5,5.8c-1,3.2-2.5,7.9-4.4,13.9
	c1.8-0.6,3.9-1.4,6.5-2.2c2.5-0.8,5.5-1.7,8.9-2.8c0.9-0.1,2.2-0.5,3.8-1.1C298.7,78.9,299.4,77.5,300.1,76.1L300.1,76.1z
	 M369.2,88.6c0,0.3-0.1,0.6-0.4,1.1c-3.2,4.9-7.9,9.5-14.2,13.7c-6.7,4.4-12.8,6.6-18.4,6.6c-8,0-12-5-12-15
	c0-6.6,2.8-13.8,8.5-21.6c6.1-8.3,12.3-12.5,18.8-12.5c1.3,0,2.4,0.6,3.3,1.7c0.9,1.1,1.4,2.3,1.4,3.6c0,3.9-3,8.7-8.9,14.2
	c-5.3,4.9-10.2,8.2-14.6,9.9c-0.9,3.2-1.3,5.8-1.3,8c0,5.2,2.3,7.8,7,7.8c4.4,0,9.4-1.8,15-5.5c4.8-3.2,8.9-6.8,12.3-10.8
	c0.9-1.3,1.8-1.9,2.7-1.9C368.9,87.8,369.2,88.1,369.2,88.6L369.2,88.6z M350.6,68.5c0-1.5-0.8-2.3-2.3-2.3c-1.9,0-4.7,2.9-8.3,8.7
	c-3.2,4.9-5.1,8.8-5.9,11.6c3.3-1.4,6.7-3.9,10.2-7.4C348.5,75.1,350.6,71.5,350.6,68.5L350.6,68.5z M432.2,86.5
	c0,0.9-0.4,2-1.1,3.2c-3.3,5.4-8.7,10.9-16.3,16.3c-8.1,6.1-14.9,9.1-20.5,9.1c-1.1,0-2.8-0.1-5.1-0.2c-2.2,0-3.8,0-4.9,0
	c-0.5,0-2.4-0.4-5.7-1.3c-3.9,10.1-9.2,20.7-15.9,31.9c-9.5,15.4-17.2,23.1-23.1,23.1c-3.2,0-4.7-2.3-4.7-7
	c0-6.2,5.7-17.7,17.1-34.5c8.1-11.1,16.3-22.3,24.5-33.6v-1.1c0-4.6-0.1-8.5-0.2-12c-4.8,7.8-7.8,11.8-9.1,11.8
	c-0.8,0-1.1-0.4-1.1-1.3c0-0.5,0.2-1,0.6-1.5c5.6-7.8,8.3-14.9,8.3-21.1c0-1.3-0.3-2.3-1-3.1c-0.7-0.8-1-1.5-1-2
	c0-0.5,2-0.8,5.9-0.8c4.3,0,6.5,4.3,6.5,12.9c0,1.3-0.1,3.1-0.3,5.6c-0.2,2.5-0.3,4.3-0.3,5.4c3.5-6.5,7.5-12.4,11.8-17.8
	c6.6-8.1,12.1-12.1,16.5-12.1c4,0,6.1,3,6.1,8.9c0,7.5-2.6,16.1-7.9,26c-5.2,9.9-11,16.8-17.2,20.7c11-0.3,23.2-8.8,36.6-25.6
	c0.5-0.6,0.9-0.9,1.1-0.9C431.9,85.4,432.2,85.8,432.2,86.5L432.2,86.5z M410.4,69.2c0-3.9-1.1-5.9-3.2-5.9c-0.6,0-1.3,0.1-1.9,0.4
	c-4.6,2-9.4,7.9-14.4,17.6c-3.8,7.2-6.8,14.6-9.1,22.2c1.3,1.9,3.5,4.3,6.6,7.2c5.6-2.4,10.7-8.4,15.4-18
	C408.1,83.7,410.4,75.8,410.4,69.2L410.4,69.2z M374.5,103.8c-0.1-0.1-0.3-0.2-0.4-0.2c-0.5,0-1.2,0.6-2.1,1.9
	c-3,4.6-7.6,11.3-13.7,20.1c-2.7,3.8-6,9.5-10.1,17.3c-4.7,9-7,14.8-7,17.5c0,1.1,0.4,1.7,1.1,1.7c5.6,0,13.2-9.1,23-27.3
	c2.5-4.8,5.2-13.1,8.2-24.9c-0.1-0.6-0.2-1.3-0.2-1.9C373.4,106.4,373.7,105,374.5,103.8L374.5,103.8z"/>
<g>
	<path class="st1" d="M6.5,156.1v-17.3h2.1v15.3h7.7v-15.3h2.1v15.3H26v-15.3h2.1v17.3H6.5z"/>
	<path class="st1" d="M32.6,156.1v-17.3h2.1v7.5h3.9l5.2-7.5h2.4l-5.9,8.4l6.4,8.8h-2.4l-5.6-7.8h-4v7.8H32.6z"/>
	<path class="st1" d="M56.1,138.6c6,0,9,4.5,9,8.9s-3,8.9-9,8.9s-9-4.5-9-8.9S50,138.6,56.1,138.6z M56.1,140.6
		c-4.7,0-6.9,3.4-6.9,6.9s2.2,6.9,6.9,6.9s6.9-3.4,6.9-6.9S60.8,140.6,56.1,140.6z"/>
	<path class="st1" d="M81.7,138.9v17.3h-2.1v-15.3h-6.6c-0.7,7.9-1.3,15.5-5.8,15.5c-0.5,0-1-0.1-1.5-0.3v-2
		c0.3,0.1,0.6,0.2,1.2,0.2c3.1,0,3.6-7.8,4.2-15.4H81.7z"/>
	<path class="st1" d="M84.2,156.1l7.5-17.3H94l7.5,17.3h-2.2l-1.8-4.2h-9.3l-1.8,4.2H84.2z M89,150h7.7l-3.6-8.4
		c-0.1-0.2-0.2-0.4-0.3-0.7c-0.1,0.2-0.2,0.4-0.3,0.7L89,150z"/>
	<path class="st1" d="M110.1,156.1v-17.3h2.1v7.5h3.9l5.2-7.5h2.4l-5.9,8.4l6.4,8.8h-2.4l-5.6-7.8h-4v7.8H110.1z"/>
	<path class="st1" d="M133.6,138.6c6,0,9,4.5,9,8.9s-3,8.9-9,8.9s-9-4.5-9-8.9S127.5,138.6,133.6,138.6z M133.6,140.6
		c-4.7,0-6.9,3.4-6.9,6.9s2.2,6.9,6.9,6.9s6.9-3.4,6.9-6.9S138.2,140.6,133.6,140.6z"/>
	<path class="st1" d="M153.9,138.6c1.7,0,3.4,0.4,4.9,1.2v2.1c-1.3-0.8-2.9-1.3-4.5-1.3c-3.6,0-7.3,2.1-7.3,7.1
		c0,4.6,3.8,6.8,7.4,6.8c1.8,0,3.4-0.4,4.6-1.3v2.1c-1.4,0.7-3.2,1.2-5,1.2c-4.3,0-9.1-3.1-9-8.8
		C144.8,141.6,149.4,138.6,153.9,138.6z"/>
	<path class="st1" d="M180,138.9v17.3h-2.1v-13.3l-6.2,9.3h-1.3l-6.2-9.3v13.3h-2.1v-17.3h1.8l7.1,10.6l7.1-10.6H180z"/>
	<path class="st1" d="M196.1,138.9v2h-9.6v5.6h8.8v2h-8.8v5.7h9.7v2h-11.8v-17.3H196.1z"/>
	<path class="st1" d="M212,138.9v2h-6.1v15.3h-2.1v-15.3h-6.1v-2H212z"/>
	<path class="st1" d="M221.6,138.6c6,0,9,4.5,9,8.9s-3,8.9-9,8.9c-6,0-9-4.5-9-8.9S215.5,138.6,221.6,138.6z M221.6,140.6
		c-4.7,0-6.9,3.4-6.9,6.9s2.2,6.9,6.9,6.9c4.7,0,6.9-3.4,6.9-6.9S226.3,140.6,221.6,140.6z"/>
	<path class="st1" d="M247.3,138.9v17.3h-2.1v-15.3h-6.6c-0.7,7.9-1.3,15.5-5.8,15.5c-0.5,0-1-0.1-1.5-0.3v-2
		c0.3,0.1,0.6,0.2,1.2,0.2c3.1,0,3.6-7.8,4.2-15.4H247.3z"/>
	<path class="st1" d="M259.7,138.6c6,0,9,4.5,9,8.9s-3,8.9-9,8.9c-6,0-9-4.5-9-8.9S253.6,138.6,259.7,138.6z M259.7,140.6
		c-4.7,0-6.9,3.4-6.9,6.9s2.2,6.9,6.9,6.9c4.7,0,6.9-3.4,6.9-6.9S264.3,140.6,259.7,140.6z"/>
	<path class="st1" d="M272,156.1v-17.3h11.3v2h-9.3v15.3H272z"/>
	<path class="st1" d="M298.3,156.1v-12.3c0-0.5,0-1,0-1.5l-10.4,13.8H286v-17.3h2.1v12.3c0,0.5,0,1,0,1.5l10.4-13.8h1.9v17.3H298.3z
		"/>
	<path class="st1" d="M317.2,156.1v-12.3c0-0.5,0-1,0-1.5l-10.4,13.8h-1.9v-17.3h2.1v12.3c0,0.5,0,1,0,1.5l10.4-13.8h1.9v17.3H317.2
		z"/>
</g>
</svg>
