<?xml version="1.0" encoding="utf-8"?>
<!-- Generator: Adobe Illustrator 22.0.1, SVG Export Plug-In . SVG Version: 6.00 Build 0)  -->
<svg version="1.1" id="Layer_1" xmlns="http://www.w3.org/2000/svg" xmlns:xlink="http://www.w3.org/1999/xlink" x="0px" y="0px"
	 viewBox="0 0 165.1 117.1" style="enable-background:new 0 0 165.1 117.1;" xml:space="preserve">
<style type="text/css">
	.st0{fill:url(#SVGID_1_);}
</style>
<linearGradient id="SVGID_1_" gradientUnits="userSpaceOnUse" x1="0" y1="58.5275" x2="165.0532" y2="58.5275">
	<stop  offset="0" style="stop-color:#9D7845"/>
	<stop  offset="0.5155" style="stop-color:#FFDF9A"/>
	<stop  offset="0.5973" style="stop-color:#F6D694"/>
	<stop  offset="0.6816" style="stop-color:#E4C384"/>
	<stop  offset="0.7671" style="stop-color:#CAA86E"/>
	<stop  offset="0.8534" style="stop-color:#AA8751"/>
	<stop  offset="0.9395" style="stop-color:#866332"/>
	<stop  offset="1" style="stop-color:#6B4A1E"/>
</linearGradient>
<path class="st0" d="M165.1,37.8c0,7.5-3.7,19.2-11,35.3c-7.3,16.1-11,26.4-11,31.1c0,3.8,1.8,5.7,5.3,5.7c2,0,4.5-1.1,7.5-3.2
	c3-2.2,4.7-3.2,5.2-3.2c0.5,0,0.8,0.3,0.8,0.9c0,2.5-1.7,4.7-5.2,6.6c-3.5,1.9-6.6,2.8-9.4,2.8c-6.7,0-10.1-3.5-10.1-10.6
	c0-5.2,1.9-12.1,5.7-20.9c4.6-10.2,7-15.7,7.2-16.5c2.7-6.3,4.7-12,6.2-17.2c1.5-5.1,2.2-9.1,2.2-12c0-4.4-1.6-6.6-4.7-6.6
	c-1.5,0-3.5,0.5-5.9,1.5c-9.1,4.2-20.6,14.9-34.3,32.3c-10.1,12.8-19.4,26.1-27.7,40c-2,3.7-5.1,8.1-9.3,13.3
	c-2.8,0-4.2-1.4-4.2-4.2c0-0.9,0.2-1.6,0.6-2.3c7-8.5,14.7-22.2,23.1-41.2c9.1-20.4,13.7-35.2,13.7-44.4c0-13.7-8.1-20.5-24.3-20.5
	c-7.7,0-16.5,1.7-26.4,5.1C47.6,13.5,36.6,19,26,26.4C12,36,4.9,45.2,4.9,54.1c0,7.2,4.9,10.8,14.6,10.8c5.2,0,12.2-1.3,21.1-3.8
	c0.9-0.3,1.5-0.4,1.9-0.4c1,0,1.5,0.4,1.5,1.1c0,2.2-3.3,4-9.9,5.5c-5.2,1.3-9.5,1.9-12.9,1.9C7.1,69.2,0,63.7,0,52.6
	C0,42.2,7.2,32,21.6,22C32.5,14.5,44.4,8.8,57.3,4.7C67.9,1.6,77.7,0,86.5,0c20.9,0,31.3,8.2,31.3,24.7c0,11.5-4.6,26-13.8,43.4
	c7.2-8.6,14.4-17.3,21.6-26c10.9-11.8,19.4-17.6,25.6-17.6C160.4,24.5,165.1,28.9,165.1,37.8L165.1,37.8z"/>
</svg>
